HIERARCHY
ROOT simHips
{
  OFFSET 0.0199349 98.5308 -0.740266
  CHANNELS 6 Xposition Yposition Zposition Zrotation Xrotation Yrotation
  JOINT simSpine
  {
    OFFSET -0.000355721 21.3001 -0.016921
    CHANNELS 3 Zrotation Xrotation Yrotation
    JOINT simLeftArm
    {
      OFFSET 13.5181 21.3012 0
      CHANNELS 3 Zrotation Xrotation Yrotation
      JOINT simLeftForeArm
      {
        OFFSET 24.5783 0 0
        CHANNELS 3 Zrotation Xrotation Yrotation
        JOINT simLeftHand
        {
          OFFSET 24.5783 0 0
          CHANNELS 3 Zrotation Xrotation Yrotation
          End Site
          {
            OFFSET 7.32568 1.52588e-05 0.0169305
          }
        }
      }
    }
    JOINT simHead
    {
      OFFSET 0 27.4458 -0.00489235
      CHANNELS 3 Zrotation Xrotation Yrotation
      End Site
      {
        OFFSET 0 0 0
      }
    }
    JOINT simRightArm
    {
      OFFSET -13.5174 21.3012 0
      CHANNELS 3 Zrotation Xrotation Yrotation
      JOINT simRightForeArm
      {
        OFFSET -24.5783 0 0
        CHANNELS 3 Zrotation Xrotation Yrotation
        JOINT simRightHand
        {
          OFFSET -24.5783 0 0
          CHANNELS 3 Zrotation Xrotation Yrotation
          End Site
          {
            OFFSET -7.32568 1.52588e-05 0.0169305
          }
        }
      }
    }
  }
  JOINT simRightUpLeg
  {
    OFFSET -8.44614 -9.41038 0.835684
    CHANNELS 3 Zrotation Xrotation Yrotation
    JOINT simRightLeg
    {
      OFFSET 0 -40.9639 0
      CHANNELS 3 Zrotation Xrotation Yrotation
      JOINT simRightFoot
      {
        OFFSET 0 -40.9639 0
        CHANNELS 3 Zrotation Xrotation Yrotation
        End Site
        {
          OFFSET 0.50614 -9.67405 14.6709
        }
      }
    }
  }
  JOINT simLeftUpLeg
  {
    OFFSET 8.44614 -9.41038 0.835684
    CHANNELS 3 Zrotation Xrotation Yrotation
    JOINT simLeftLeg
    {
      OFFSET 0 -40.9639 0
      CHANNELS 3 Zrotation Xrotation Yrotation
      JOINT simLeftFoot
      {
        OFFSET 0 -40.9639 0
        CHANNELS 3 Zrotation Xrotation Yrotation
        End Site
        {
          OFFSET -0.50614 -9.67405 14.6709
        }
      }
    }
  }
}
MOTION
Frames:	21
Frame Time:	0.0333333
0.0199349 98.5308 -0.740266 -0.229925 1.93228 1.9433 0.114659 6.17358 -1.28323 -71.1116 40.4073 -4.5441 -0.000147912 -8.68743e-06 -11.0614 -10.5861 2.58683 4.10691 0.363595 1.09059 1.75747 67.286 24.6795 11.1793 -0.000673005 9.74113e-06 23.7956 5.90425 -1.23978 1.07356 1.74776 -13.2912 -7.00392 -4.12273 23.1298 4.27389 0.208315 -12.9781 -0.0476112 5.78275 -28.2653 11.7342 -1.18225 61.4688 -3.71911 -1.37199 -3.58849 -0.0547341 
0.965678 98.3872 0.388875 -0.10645 1.77716 2.12721 0.0839515 6.39265 -0.511205 -72.2303 37.2393 -3.47956 -0.00014805 -8.65924e-06 -11.9753 -10.2963 3.03244 4.32688 0.5234 1.40658 1.1632 66.5203 27.2703 9.84793 -0.000674066 9.2006e-06 30.2064 4.27582 0.226152 0.503591 0.9305 -12.812 -7.14671 -4.13626 24.1633 4.03344 0.916898 -14.2111 0.697917 7.12587 -28.3488 11.6648 -0.79045 60.5429 -3.10445 -2.25116 -4.34405 0.506326 
3.1236 98.0696 2.74382 0.177863 1.60167 2.39929 -0.0329626 6.80432 0.985732 -74.2617 30.8335 -1.49653 -0.000148332 -8.59472e-06 -13.8446 -9.85627 3.87316 5.07257 0.685815 1.77015 -0.164025 64.2848 32.464 8.78646 -0.00067568 8.04633e-06 40.9049 0.771224 3.55928 -0.165256 -1.0404 -11.7335 -7.4841 -3.87769 25.8264 3.93989 2.32911 -16.3545 2.01397 9.86644 -27.7289 11.6319 0.110103 56.2753 -0.506801 -5.19759 -5.29215 1.58493 
5.54018 97.7304 5.22112 0.406438 1.53213 2.48339 -0.124426 7.15097 2.44818 -76.0341 24.509 0.449088 -0.0001486 -8.52421e-06 -15.6382 -9.69628 4.68735 5.91936 0.703726 1.80754 -1.45569 61.0829 37.4872 9.30005 -0.000676874 6.83223e-06 50.0771 -3.08639 7.72827 -0.721861 -3.18903 -10.2522 -7.77771 -3.34756 26.6395 4.38597 3.66944 -18.0536 3.01304 12.5827 -26.1471 11.8551 0.813457 49.2228 2.91596 -8.38295 -5.2598 2.6784 
8.08486 97.3855 7.76598 0.533376 1.41339 2.25687 -0.137829 7.49681 3.95435 -77.5505 18.1005 2.30733 -0.000148837 -8.4543e-06 -17.2374 -9.98172 6.00563 6.69985 0.684492 1.58275 -2.51612 57.0208 41.9088 11.3173 -0.000677734 5.64752e-06 57.9624 -6.78882 12.8127 -1.33185 -5.25138 -8.2664 -7.93471 -2.82598 26.6113 5.07278 5.16225 -19.7009 4.10001 14.9575 -23.9095 12.4721 1.15883 40.8431 5.72741 -11.112 -3.78035 2.73413 
10.6612 97.0399 10.3044 0.507446 1.27372 1.79776 -0.0147366 7.79419 5.43698 -78.8829 11.516 3.97902 -0.000149037 -8.38939e-06 -18.6029 -10.3932 7.72313 7.45621 0.671173 1.22581 -3.27506 52.3375 45.4642 14.6855 -0.000678321 4.57765e-06 64.5336 -9.98697 18.8342 -1.98807 -7.09115 -5.84071 -8.00067 -2.37371 25.565 5.92189 6.68778 -20.8366 5.19695 17.077 -21.589 13.386 1.22077 32.4564 7.63191 -13.5046 -1.2214 1.32993 
13.1352 96.7015 12.7844 0.140194 1.09476 1.16097 0.338593 8.00174 6.86905 -80.0379 4.86459 5.6009 -0.000149235 -8.32014e-06 -19.9603 -10.6967 9.35456 8.38394 0.737592 0.998553 -3.60045 47.3279 48.1968 19.1753 -0.000678697 3.68693e-06 69.7379 -12.2924 25.1661 -2.82353 -8.37374 -2.92326 -7.94864 -2.0315 23.3198 6.80811 8.16051 -21.3126 6.23333 19.123 -19.325 14.3109 1.05228 24.4947 9.37978 -15.7788 1.81569 -0.716464 
15.3236 96.3226 15.099 -0.578209 0.871155 0.306119 0.792672 8.13586 8.32131 -80.8534 -1.647 7.21749 -0.000149441 -8.24245e-06 -21.3848 -11.1329 10.7163 9.40719 0.975168 1.09164 -3.32958 42.4552 49.926 24.4976 -0.000678913 3.03583e-06 73.4317 -13.5931 30.6291 -3.62741 -9.01986 0.162898 -7.79353 -1.83918 20.3777 7.76053 9.50943 -21.3109 7.15461 21.0601 -17.7343 15.179 0.759598 18.4975 9.78042 -18.2045 4.70305 -3.54726 
17.1689 95.7458 17.091 -1.36086 0.792927 -0.532765 1.21955 8.16633 9.59914 -81.4563 -7.80919 8.93343 -0.00014971 -8.13217e-06 -23.2641 -11.6772 11.6819 10.4458 1.22319 1.41606 -2.4598 38.5455 50.1865 29.6885 -0.000679036 2.59023e-06 75.9185 -14.5647 34.3215 -3.86132 -9.52529 2.20068 -7.7541 -1.73834 18.787 8.79615 10.6618 -21.7674 8.0103 22.9738 -17.6797 16.0226 0.227291 16.448 9.90423 -21.029 6.79969 -7.44939 
18.6952 95.0354 18.6261 -2.17024 0.681777 -1.20497 1.75621 8.48564 10.617 -81.9008 -13.444 10.2723 -0.000149962 -8.01927e-06 -25.0499 -12.1501 12.686 11.2946 1.27129 1.73351 -0.97499 36.3132 48.8276 33.7814 -0.000679089 2.36745e-06 77.1514 -17.0579 35.8845 -1.67305 -9.90257 3.25431 -7.84149 -1.77131 18.7379 9.76925 11.6815 -22.7123 8.81244 24.2644 -20.2774 16.5881 -0.371632 21.8673 10.1016 -23.3549 7.91383 -12.4905 
20.0988 94.5251 19.797 -3.15679 0.336046 -2.1631 2.26562 9.49899 11.8093 -81.9128 -18.6021 10.3605 -0.000150008 -7.99726e-06 -25.3843 -12.5034 14.3277 11.5009 1.23112 1.92272 1.18002 35.4665 46.1118 36.3796 -0.000679083 2.39158e-06 77.0181 -23.7524 36.0135 5.59537 -9.84429 4.70938 -7.87697 -2.07846 17.6428 10.619 12.3534 -22.7011 9.36522 24.2288 -21.6849 16.0329 0.783947 26.8861 9.73539 -19.7676 4.68496 -12.7368 
21.2609 94.1632 20.7009 -3.75613 0.0878609 -3.51032 2.07452 10.5796 13.1678 -81.6168 -23.3235 10.4572 -0.000150111 -7.94762e-06 -26.1237 -12.6042 15.6478 11.8546 1.0944 2.42372 3.90402 34.545 43.2076 38.8439 -0.000679045 2.5538e-06 76.1205 -32.4672 35.2588 13.7587 -10.1107 4.89053 -7.8151 -2.77186 18.0494 11.1956 13.4805 -21.8643 10.6027 23.6311 -22.1945 15.0331 1.82956 30.6581 9.13696 -16.0855 -0.518911 -10.8169 
22.0945 94.0522 21.4077 -3.75542 0.116795 -4.55673 1.19154 11.3819 14.1221 -81.1186 -27.2802 11.3032 -0.000150422 -7.78773e-06 -28.3838 -12.701 16.0856 12.9364 0.504414 3.19937 7.02218 33.4412 40.9339 41.6652 -0.000678991 2.76178e-06 74.9646 -39.8498 34.8961 18.4501 -10.7208 4.59451 -7.98261 -3.48407 18.5533 11.4539 14.2533 -20.6146 11.9032 23.3196 -22.3249 14.632 1.51516 32.7883 9.24775 -15.1183 -3.5234 -9.72278 
22.8593 94.1345 22.0474 -3.83944 0.40991 -5.32491 0.704316 11.8206 14.6813 -80.5412 -30.2631 12.3371 -0.000150771 -7.58871e-06 -30.9853 -13.3437 16.6574 14.2445 -0.926138 3.99037 10.6095 32.3815 39.84 44.8068 -0.000678938 2.95106e-06 73.9071 -43.5021 35.8367 17.5706 -11.2044 4.63341 -8.58424 -3.79963 17.8004 11.498 14.7733 -18.6297 13.2386 24.0023 -22.214 15.4577 -0.126454 33.8823 10.1173 -14.2413 -4.75273 -9.72253 
23.6953 94.4482 22.5259 -4.06451 1.142 -6.85841 0.56863 11.9497 15.73 -79.9175 -32.7958 12.5565 -0.00015098 -7.45911e-06 -32.5782 -14.0166 18.1415 14.5464 -2.88726 4.38212 14.7321 31.097 39.3957 48.3592 -0.000678871 3.17507e-06 72.6483 -44.16 37.8776 13.1333 -11.5455 4.63519 -9.34598 -3.92157 15.3273 11.3927 15.3053 -15.3398 14.9488 24.816 -21.7339 16.5508 -1.74444 33.8646 10.9984 -13.3231 -5.54433 -8.96786 
24.513 94.8959 22.747 -4.19839 2.24647 -9.26561 0.256757 11.9318 17.3344 -79.2028 -35.2045 12.1912 -0.000151132 -7.35953e-06 -33.7563 -13.704 19.634 13.7048 -4.61068 4.00908 18.9767 30.1924 39.019 52.0362 -0.000678781 3.4504e-06 71.0891 -41.9856 40.8237 7.38154 -11.7598 3.87476 -9.89126 -4.17382 12.6662 11.2645 15.7769 -12.1153 16.6105 25.2335 -21.1492 17.2535 -2.75084 33.0191 11.519 -12.7379 -6.02727 -7.01296 
25.2616 95.3224 22.7817 -4.45692 3.40808 -11.5592 0.00622351 11.9407 18.539 -78.2418 -37.3324 12.1234 -0.000151321 -7.22949e-06 -35.2424 -12.2579 19.2658 12.2066 -5.62678 2.96164 22.8965 30.0713 38.614 55.4155 -0.000678674 3.74703e-06 69.3927 -37.9471 43.5071 2.28691 -11.4899 2.85087 -10.2032 -4.254 10.4046 11.1006 16.0069 -9.68141 16.244 25.8173 -20.771 17.9081 -3.56666 32.1125 11.9181 -12.201 -6.28464 -5.11258 
26.0093 95.6596 22.7088 -4.86699 4.39247 -13.1907 0.0282347 12.015 18.8936 -77.0731 -38.6163 12.3222 -0.00015147 -7.12223e-06 -36.4282 -10.4054 16.6506 10.759 -5.95718 1.70155 26.027 30.284 38.4135 58.323 -0.000678564 4.02923e-06 67.7612 -33.3602 44.7643 -2.17455 -10.8699 1.11862 -10.3301 -3.90567 10.458 11.0401 15.3021 -9.74243 11.05 26.6021 -20.7015 18.5662 -4.40492 31.5728 12.3354 -11.5518 -6.45478 -3.85849 
26.7922 95.9294 22.5328 -5.25958 5.11138 -14.4947 0.09595 12.0571 18.9142 -75.9281 -38.7131 12.0622 -0.000151477 -7.11686e-06 -36.4868 -9.17219 14.0949 9.99277 -5.81971 0.688229 27.8623 30.6742 38.5053 60.4415 -0.000678454 4.28707e-06 66.2537 -28.5651 45.3385 -7.08213 -10.4486 -0.575594 -10.2087 -2.65261 11.9362 8.43948 13.8946 -11.3545 3.94255 27.1276 -20.7687 18.9413 -4.91465 31.2843 12.5888 -10.9976 -6.61019 -2.73043 
27.4372 96.2007 22.217 -5.43677 5.65423 -16.1149 -0.144682 11.8451 19.2424 -74.8868 -38.352 11.3336 -0.000151377 -7.18972e-06 -35.6861 -8.8659 13.5567 9.83597 -5.42842 0.0372982 28.416 30.5541 39.0251 62.1545 -0.000678341 4.53469e-06 64.7894 -24.5009 45.9992 -11.0107 -9.88789 -1.45393 -10.0127 -1.52485 13.3577 -0.716148 13.9292 -11.8739 4.05025 27.2215 -20.5575 19.0048 -4.94335 30.6257 12.5638 -10.7403 -6.54954 -1.08593 
27.9291 96.4525 21.794 -5.36351 6.03606 -18.2662 -0.724886 11.3723 19.9179 -73.9817 -38.5951 10.7673 -0.000151279 -7.25941e-06 -34.9054 -8.77845 14.3037 9.79752 -4.96306 -0.397493 28.2296 29.1727 40.0179 63.8544 -0.000678277 4.66941e-06 63.9854 -22.2814 46.1633 -12.0185 -9.27418 -2.33746 -10.0121 -0.620708 16.0331 -4.96888 13.7438 -12.7826 3.94231 27.0786 -19.9563 18.9743 -4.82443 29.68 12.4465 -10.6821 -6.37722 1.04263 
